<svg width="165" height="70" viewBox="0 0 165 70" fill="none" xmlns="http://www.w3.org/2000/svg">
<path fill-rule="evenodd" clip-rule="evenodd" d="M72.252 35L36.2283 0.434204L0.204723 35L36.2283 69.5658L72.252 35ZM57 35.5L36.5 16L16 35.5L36.5 55L57 35.5Z" fill="black"/>
<path d="M91.4655 44.25C91.1773 44.25 91.0332 44.1526 91.0332 43.9579V28.967C91.0332 28.7723 91.1773 28.6749 91.4655 28.6749H101.287C101.564 28.6749 101.794 28.7373 101.979 28.8619L105.437 31.1987C105.633 31.3312 105.731 31.4869 105.731 31.6661V43.9579C105.731 44.1526 105.587 44.25 105.299 44.25H100.405C100.117 44.25 99.9729 44.1526 99.9729 43.9579V31.7829H96.7913V43.9579C96.7913 44.1526 96.6472 44.25 96.359 44.25H91.4655ZM114.322 44.25C114.057 44.25 113.826 44.1838 113.63 44.0514L110.172 41.7145C109.976 41.5899 109.878 41.4341 109.878 41.2472V31.6661C109.878 31.4869 109.976 31.3312 110.172 31.1987L113.63 28.8619C113.826 28.7373 114.057 28.6749 114.322 28.6749H121.117C121.394 28.6749 121.624 28.7373 121.809 28.8619L125.267 31.1987C125.463 31.3312 125.561 31.4869 125.561 31.6661V41.2472C125.561 41.4341 125.463 41.5899 125.267 41.7145L121.809 44.0514C121.624 44.1838 121.394 44.25 121.117 44.25H114.322ZM116.362 41.1303H119.077C119.561 41.1303 119.803 40.9122 119.803 40.476V32.4489C119.803 32.0049 119.561 31.7829 119.077 31.7829H116.362C115.89 31.7829 115.653 32.0049 115.653 32.4489V40.476C115.653 40.9122 115.89 41.1303 116.362 41.1303ZM134.146 44.25C133.869 44.25 133.638 44.1838 133.454 44.0514L129.996 41.7145C129.8 41.5899 129.702 41.4341 129.702 41.2472V28.967C129.702 28.7723 129.846 28.6749 130.134 28.6749H135.027C135.316 28.6749 135.46 28.7723 135.46 28.967V41.1186H139.333V28.967C139.333 28.7723 139.477 28.6749 139.765 28.6749H144.659C144.947 28.6749 145.091 28.7723 145.091 28.967V41.2472C145.091 41.4341 144.993 41.5899 144.797 41.7145L141.339 44.0514C141.154 44.1838 140.924 44.25 140.647 44.25H134.146ZM149.567 44.25C149.279 44.25 149.135 44.1526 149.135 43.9579V33.1266C149.135 33.0254 149.193 32.9085 149.308 32.7761L153.406 28.8502C153.533 28.7334 153.717 28.6749 153.959 28.6749H159.683C159.936 28.6749 160.121 28.7334 160.236 28.8502L164.351 32.7761C164.467 32.8852 164.524 33.002 164.524 33.1266V43.9579C164.524 44.1526 164.38 44.25 164.092 44.25H159.199C158.91 44.25 158.766 44.1526 158.766 43.9579V38.9921H154.91V43.9579C154.91 44.1526 154.766 44.25 154.478 44.25H149.567ZM156.83 36.48C157.89 36.48 158.605 36.3242 158.974 36.0126C159.354 35.6933 159.544 35.0896 159.544 34.2016C159.544 33.3136 159.354 32.7138 158.974 32.4022C158.605 32.0828 157.89 31.9232 156.83 31.9232C155.781 31.9232 155.066 32.0828 154.686 32.4022C154.317 32.7138 154.132 33.3136 154.132 34.2016C154.132 35.0896 154.317 35.6933 154.686 36.0126C155.066 36.3242 155.781 36.48 156.83 36.48Z" fill="black"/>
<circle cx="35.5" cy="35.5" r="8.5" fill="black"/>
</svg>
