<svg width="20" height="20" viewBox="0 0 20 20" fill="none" xmlns="http://www.w3.org/2000/svg">
<path fill-rule="evenodd" clip-rule="evenodd" d="M7 14C7.60498 14 8.1678 14.0363 8.6893 14.1083C9.134 13.4022 9.7695 12.8283 10.5234 12.4591C9.4852 12.1518 8.3091 12 7 12C4.08837 12 1.8345 12.7513 0.29289 14.2929C-0.09763 14.6834 -0.09763 15.3166 0.29289 15.7071C0.68342 16.0976 1.31658 16.0976 1.70711 15.7071C2.83217 14.582 4.5783 14 7 14ZM7.00102 10.8C4.37115 10.8 2.5 8.10773 2.5 4.97046C2.5 2 4.09615 0 7.00102 0C9.9059 0 11.5 2 11.5 4.97046C11.5 8.10773 9.6309 10.8 7.00102 10.8ZM7.00102 8.80003C8.3075 8.80003 9.5 7.2042 9.5 4.97046C9.5 2.96103 8.6599 2 7.00102 2C5.34134 2 4.5 2.96184 4.5 4.97046C4.5 7.20347 5.6938 8.80003 7.00102 8.80003ZM20 15.5029L15 20.0029V17.5029C15 17.5029 11.5 17.0029 9.5 19.0029C9.5 14.0029 15 13.5029 15 13.5029V11.0029L20 15.5029Z" fill="black"/>
</svg>