<svg width="18" height="21" viewBox="0 0 18 21" fill="none" xmlns="http://www.w3.org/2000/svg">
<path fill-rule="evenodd" clip-rule="evenodd" d="M9.49862 0.0703299C7.35772 -0.16428 5.85731 0.20071 4.89219 0.97671C4.14759 1.57539 3.81545 2.34479 3.7399 3.03158C3.32707 3.35536 2.85185 3.77472 2.53021 4.37385C2.08093 5.21071 1.98164 6.25458 2.20062 7.67798C2.20423 7.70146 2.20866 7.72471 2.21389 7.74771C2.21171 7.79627 2.21305 7.84559 2.21814 7.89539C2.32407 8.93255 2.56446 10.4229 3.10241 11.8553C3.51245 12.9471 4.12595 14.0864 5.05511 14.9439C5.13547 15.2808 5.16477 15.8105 5.0607 16.3217C4.92417 16.9923 4.67685 17.1489 4.59029 17.1703C2.86674 17.5968 1.7178 17.9333 0.446249 18.7792C-0.0135914 19.0851 -0.138391 19.7058 0.167499 20.1656C0.473379 20.6255 1.09412 20.7503 1.55396 20.4444C2.51789 19.8032 3.3757 19.5312 5.07066 19.1118C6.3343 18.7991 6.84342 17.5905 7.02052 16.7206C7.06522 16.5012 7.09582 16.2732 7.11252 16.0432C7.33872 16.0864 7.58562 16.1159 7.84972 16.1257L8.36212 16.1451C8.48262 16.1496 8.57942 16.0473 8.57242 15.9271C8.54282 15.4205 8.56632 14.8968 8.65672 14.3923C8.67882 14.2692 8.58892 14.1523 8.46392 14.1476L7.92522 14.1272C7.63942 14.1164 7.41442 14.0704 7.25682 14.0226C7.13352 13.9852 7.06762 13.9517 7.05012 13.943L7.04542 13.9406L7.04752 13.9424L7.01682 13.9206L6.98032 13.8991C6.09144 13.3769 5.43577 12.3798 4.97473 11.1522C4.59901 10.1517 4.38649 9.08785 4.26949 8.21471C5.49977 7.77179 6.98952 7.10273 8.14882 6.05062C8.71042 6.41451 9.45492 6.83716 10.2419 7.21017C11.1066 7.62007 12.1497 8.03282 13.1431 8.20757C12.9482 9.66875 12.5205 11.5789 11.5779 12.8378C11.3705 13.1147 11.1422 13.3584 10.8909 13.5638C10.7219 13.702 10.5373 13.9138 10.4387 14.2118C10.1872 14.9713 10.1892 15.9972 10.4251 16.8778C10.6515 17.7225 11.2095 18.8172 12.4003 19.1117C14.0953 19.5311 14.9531 19.8032 15.917 20.4443C16.3769 20.7502 16.9976 20.6255 17.3035 20.1656C17.6094 19.7057 17.4846 19.0851 17.0247 18.7792C15.7532 17.9333 14.6042 17.5967 12.8807 17.1703C12.7684 17.1425 12.5208 16.9715 12.357 16.3602C12.2245 15.8657 12.226 15.338 12.2972 14.9936C12.6302 14.7028 12.9224 14.3791 13.1789 14.0365C14.6174 12.1152 15.0493 9.31915 15.2033 7.81081C15.21 7.74592 15.2102 7.68185 15.2047 7.61921C15.2322 7.54074 15.2503 7.45774 15.2575 7.37155C15.3593 6.15937 15.4266 4.47738 14.6627 3.01297C13.8486 1.45229 12.2295 0.36961 9.49862 0.0703299ZM5.72659 3.41678C5.70349 3.21348 5.76527 2.84102 6.14541 2.53537C6.53735 2.22024 7.42232 1.85477 9.28072 2.05843C11.5489 2.307 12.4669 3.12791 12.8894 3.93795C13.2294 4.58962 13.3266 5.3703 13.3169 6.20519C12.6702 6.06746 11.8928 5.77944 11.0985 5.40293C9.92612 4.84716 8.96342 4.21975 8.68322 3.97776C8.47972 3.80208 8.21422 3.71568 7.94632 3.73805C7.67852 3.76043 7.43092 3.88968 7.25942 4.09668C6.49798 5.01596 5.29646 5.66501 4.09445 6.14215C4.1168 5.73646 4.2019 5.48829 4.29232 5.31986C4.46199 5.00383 4.71534 4.80779 5.24021 4.40167L5.34563 4.32004C5.62161 4.10612 5.76602 3.76373 5.72659 3.41678Z" fill="black"/>
</svg>